<?xml version="1.0" encoding="UTF-8"?>
<svg version="1.1" xmlns="http://www.w3.org/2000/svg" width="1024" height="1024">
<path d="M0 0 C337.92 0 675.84 0 1024 0 C1024 337.92 1024 675.84 1024 1024 C686.08 1024 348.16 1024 0 1024 C0 686.08 0 348.16 0 0 Z " fill="#FEFEFE" transform="translate(0,0)"/>
<path d="M0 0 C1.76017514 -0.00346847 3.52034809 -0.00824091 5.28051662 -0.01418173 C10.05384861 -0.02655832 14.82699774 -0.02058313 19.60032988 -0.01122308 C24.77288186 -0.00437744 29.94540448 -0.01494088 35.11795044 -0.02316284 C45.22592481 -0.03644405 55.33383203 -0.03364759 65.44180894 -0.02492492 C73.66294289 -0.01812657 81.88405813 -0.01724092 90.10519409 -0.02049637 C91.27901372 -0.02095607 92.45283336 -0.02141577 93.66222328 -0.0218894 C96.04743998 -0.02284865 98.43265667 -0.02382129 100.81787336 -0.02480717 C123.14003607 -0.03334463 145.4621617 -0.0235528 167.78431833 -0.00740607 C186.90286163 0.0059956 206.02135026 0.00366704 225.13989258 -0.01016235 C247.38676508 -0.02624729 269.63360517 -0.0325208 291.88048267 -0.02332556 C294.25651359 -0.02237 296.63254451 -0.02142689 299.00857544 -0.02049637 C300.17737242 -0.02003354 301.34616939 -0.01957072 302.55038446 -0.01909386 C310.75363952 -0.01651271 318.95687388 -0.02085604 327.16012573 -0.02793503 C337.16859406 -0.03638267 347.17699188 -0.03400163 357.18545222 -0.0180928 C362.28367918 -0.01025381 367.38178893 -0.00704311 372.4800148 -0.01704025 C377.16068111 -0.02607922 381.84112324 -0.02090546 386.52176964 -0.0051076 C388.20119132 -0.00179826 389.88063254 -0.00336522 391.56004131 -0.01073496 C407.40273553 -0.07484107 423.4311149 1.41496022 438.55688477 6.38095093 C439.55719727 6.68259155 440.55750977 6.98423218 441.58813477 7.29501343 C461.27892933 13.68992101 478.41678163 24.49188939 493.49829102 38.53329468 C495.62049969 40.52660724 495.62049969 40.52660724 498.55688477 42.38095093 C498.55688477 43.04095093 498.55688477 43.70095093 498.55688477 44.38095093 C499.21688477 44.38095093 499.87688477 44.38095093 500.55688477 44.38095093 C503.79014047 47.84898661 506.64336327 51.64302463 509.55688477 55.38095093 C510.23493164 56.2446228 510.91297852 57.10829468 511.61157227 57.99813843 C533.84138589 87.37006084 540.71994953 121.24371082 540.69732666 157.38554382 C540.69991662 159.06272851 540.70293151 160.73991259 540.70633006 162.41709584 C540.7143293 166.98904484 540.71618564 171.56097809 540.71692753 176.13293326 C540.71879054 181.07868273 540.72634401 186.02442426 540.73306274 190.97016907 C540.74659615 201.7681938 540.75266297 212.5662148 540.7570734 223.36424661 C540.75984429 230.11817455 540.76408315 236.87210108 540.76857758 243.62602806 C540.78076371 262.35910737 540.79106432 281.09218556 540.79445267 299.82526875 C540.79467223 301.02227339 540.7948918 302.21927804 540.79511802 303.45255555 C540.7953363 304.65227444 540.79555457 305.85199334 540.79577947 307.08806735 C540.79622292 309.5187844 540.79666948 311.94950146 540.79711914 314.38021851 C540.79734057 315.58591455 540.797562 316.7916106 540.79779014 318.03384288 C540.80173454 337.55145741 540.81918059 357.06903452 540.84247866 376.58663461 C540.86625519 396.6686504 540.87865738 416.75064746 540.87982059 436.83267754 C540.88073381 448.09036468 540.88639672 459.34800304 540.9046402 470.60567665 C540.9201265 480.19509436 540.92511177 489.78444822 540.9169021 499.37387607 C540.91302556 504.25598603 540.91377638 509.13796775 540.92795944 514.02006149 C541.06960297 565.79186263 541.06960297 565.79186263 533.55688477 588.38095093 C533.34692871 589.01758667 533.13697266 589.65422241 532.9206543 590.31015015 C527.03217484 607.86440445 518.03469595 622.8101988 506.35375977 637.15438843 C505.16967725 638.62162111 504.0319067 640.12764303 502.94750977 641.67001343 C502.48860352 642.2346228 502.02969727 642.79923218 501.55688477 643.38095093 C500.89688477 643.38095093 500.23688477 643.38095093 499.55688477 643.38095093 C499.31196289 643.95716187 499.06704102 644.5333728 498.81469727 645.12704468 C487.52195333 665.36280011 453.27165633 678.13063784 432.55688477 684.06845093 C431.85764893 684.27115601 431.15841309 684.47386108 430.43798828 684.68270874 C417.89303223 688.12614037 405.57647033 688.6728742 392.6696167 688.64164734 C390.88447258 688.6446729 389.09932976 688.6485644 387.3141892 688.65323991 C382.43947712 688.66347656 377.56483895 688.66134918 372.69012094 688.65705931 C367.42071007 688.65458417 362.15131664 688.66361604 356.88191223 688.6710968 C346.57012905 688.6838242 336.25837194 688.68563992 325.94658223 688.68329654 C317.56126072 688.68151094 309.17594709 688.68326821 300.79062653 688.68752098 C299.59556477 688.68811617 298.40050301 688.68871136 297.16922726 688.68932458 C294.74116363 688.69053638 292.3131 688.69175052 289.88503638 688.69296696 C267.13141705 688.70383507 244.37781255 688.70168353 221.62419239 688.69558211 C200.83043589 688.69041426 180.03672625 688.70166624 159.24297902 688.72068033 C137.86829638 688.7400751 116.4936359 688.74831182 95.11894441 688.74455708 C83.12820789 688.74264744 71.13751124 688.74510942 59.14678192 688.75927162 C48.93823912 688.77120731 38.72976074 688.77256582 28.52121702 688.76048145 C23.31809411 688.754608 18.1150889 688.75345076 12.91197395 688.76548386 C8.13867052 688.77639415 3.36558235 688.77317859 -1.40771124 688.75922217 C-3.12430277 688.75658933 -4.84091146 688.75889676 -6.55748609 688.76695804 C-20.83297865 688.82928551 -34.88702894 687.49879883 -48.44311523 682.69345093 C-49.18037842 682.43781372 -49.9176416 682.18217651 -50.67724609 681.91879272 C-89.78957875 667.94861535 -118.35569757 640.81640474 -136.35620117 603.73446655 C-149.99572993 574.20053636 -149.74932306 542.76480125 -149.71922362 510.91791582 C-149.71673412 505.9743318 -149.72579786 501.03076589 -149.73326111 496.08718872 C-149.74594888 486.42707136 -149.74780924 476.76698186 -149.74546085 467.10685757 C-149.74367088 459.24712585 -149.74544179 451.38740253 -149.74968529 443.52767181 C-149.75028048 442.40496358 -149.75087567 441.28225534 -149.75148889 440.12552564 C-149.75270076 437.84403787 -149.7539149 435.5625501 -149.75513127 433.28106233 C-149.76598397 411.93069577 -149.76385508 390.58034503 -149.75774642 369.22997758 C-149.75257915 349.74439888 -149.76383177 330.2588702 -149.78284464 310.77330139 C-149.80226702 290.71256748 -149.81047135 270.65185717 -149.80672139 250.59111381 C-149.80481603 239.3497603 -149.8072317 228.10844935 -149.82143593 216.86710358 C-149.83340694 207.29719489 -149.83469095 197.72735496 -149.82264576 188.15744522 C-149.816797 183.28554724 -149.81554523 178.41377466 -149.82764816 173.54188538 C-149.92842464 129.93648693 -145.94531017 90.36548412 -118.32592773 54.80673218 C-116.96229108 53.0498476 -115.67676502 51.23142561 -114.44311523 49.38095093 C-113.78311523 49.38095093 -113.12311523 49.38095093 -112.44311523 49.38095093 C-112.06413086 48.51663452 -112.06413086 48.51663452 -111.67749023 47.63485718 C-100.96692013 28.07789848 -71.5161971 14.30350165 -51.44311523 7.38095093 C-50.41831055 7.00583374 -49.39350586 6.63071655 -48.33764648 6.24423218 C-32.75623616 0.93193892 -16.33055817 -0.07166329 0 0 Z " fill="#EE305B" transform="translate(316.443115234375,167.61904907226563)"/>
<path d="M0 0 C9.82277008 -0.06953829 19.6454815 -0.12283074 29.46844769 -0.15543652 C34.0297535 -0.17108639 38.59089078 -0.19231226 43.15209961 -0.22631836 C47.55467699 -0.25893603 51.95709237 -0.27685812 56.35978127 -0.28463173 C58.03869998 -0.29017092 59.71760991 -0.30098765 61.39645958 -0.31719017 C63.74977085 -0.33899677 66.10241435 -0.34196562 68.45581055 -0.34057617 C69.1484903 -0.351362 69.84117004 -0.36214783 70.55484009 -0.3732605 C74.89107514 -0.3455934 77.54251508 0.37554586 81 3 C82.85834879 5.11457567 84.56514307 7.19496422 86.25 9.4375 C86.72816162 10.06003662 87.20632324 10.68257324 87.69897461 11.32397461 C89.14240608 13.20880776 90.57315807 15.10258772 92 17 C92.77988281 18.03382813 93.55976563 19.06765625 94.36328125 20.1328125 C95.83818333 22.09760212 97.30950031 24.06508772 98.77734375 26.03515625 C101.03347176 29.04464862 103.3242228 32.02453031 105.625 35 C109.97250625 40.62511239 114.24114841 46.30755964 118.5 52 C123.38473554 58.52728301 128.30115275 65.02472436 133.28515625 71.4765625 C144.38214838 85.85444157 155.30987789 100.361165 166.17578125 114.9140625 C169.63582989 119.54049288 173.11258915 124.15241165 176.62109375 128.7421875 C183.73406232 138.04730689 190.78879816 147.3852919 197.7097168 156.83422852 C202.07190855 162.77561134 206.52011973 168.64697635 211 174.5 C216.64907609 181.88059367 222.20649686 189.31980072 227.69775391 196.81835938 C232.8596587 203.84971077 238.14740408 210.78169561 243.44775391 217.70898438 C247.4211961 222.90809941 251.32208321 228.14317553 255.140625 233.45703125 C258.18405733 237.61937253 261.34911878 241.68648604 264.5078125 245.76171875 C266.41319777 248.22521408 268.28880806 250.70964887 270.15576172 253.20239258 C270.69014862 253.91567215 271.22453552 254.62895172 271.77511597 255.36384583 C272.1793277 255.9037767 272.58353943 256.44370758 273 257 C273.00423194 255.68156632 273.00846388 254.36313265 273.01282406 253.00474644 C273.11339809 221.740612 273.21908774 190.47649951 273.33111694 159.21240414 C273.34488729 155.36824677 273.35861427 151.52408925 273.37231445 147.67993164 C273.37504276 146.91459657 273.37777106 146.1492615 273.38058204 145.36073446 C273.42471323 132.95215416 273.46532746 120.5435647 273.50465261 108.13496835 C273.54505151 95.41213983 273.58920513 82.68932838 273.63687855 69.96652502 C273.66620004 62.10951816 273.69255742 54.25251266 273.71517897 46.39548361 C273.7328087 40.38092929 273.75565051 34.36640656 273.78049088 28.35187721 C273.78988281 25.87702781 273.7975503 23.40217121 273.80341911 20.92731094 C273.81164405 17.56450582 273.82591026 14.20178091 273.84178162 10.83900452 C273.84275972 9.84583459 273.84373783 8.85266467 273.84474558 7.82939869 C273.85022002 6.93565838 273.85569446 6.04191806 273.8613348 5.1210947 C273.86532186 3.95516343 273.86532186 3.95516343 273.86938947 2.76567799 C274 1 274 1 275 0 C302.39 0 329.78 0 358 0 C358 131.01 358 262.02 358 397 C330.94 397 303.88 397 276 397 C270.06 389.08 270.06 389.08 264 381 C261.56026729 377.84085893 259.12053245 374.6817193 256.6796875 371.5234375 C253.471629 367.33426195 250.3668502 363.06968215 247.25 358.8125 C241.98725334 351.62963951 236.59541314 344.56390811 231.10595703 337.55322266 C226.89423598 332.1687663 222.76643236 326.72858941 218.67919922 321.24926758 C214.48972863 315.63780327 210.2496599 310.0659838 206 304.5 C200.82707031 297.72291503 195.68231747 290.92661706 190.578125 284.09765625 C186.41824635 278.53996892 182.21189392 273.01833351 178 267.5 C171.7661323 259.33110329 165.57465466 251.13231037 159.42236328 242.90185547 C157.01424792 239.68194152 154.60062179 236.46616265 152.1875 233.25 C148.8761483 228.83669368 145.56692241 224.4218196 142.26171875 220.00390625 C134.15934727 209.17530877 134.15934727 209.17530877 125.9375 198.4375 C121.39523717 192.56323917 117.00288283 186.58529745 112.61328125 180.59643555 C107.30232322 173.36930799 101.87683377 166.2326898 96.41748047 159.1171875 C95.78342285 158.28960937 95.14936523 157.46203125 94.49609375 156.609375 C93.94107178 155.88717773 93.3860498 155.16498047 92.81420898 154.42089844 C90.49001327 151.31946866 88.25268251 148.15375552 86 145 C85.67 228.16 85.34 311.32 85 397 C57.28 397 29.56 397 1 397 C0 396 0 396 -0.1241985 393.33663791 C-0.12381878 392.13406363 -0.12343906 390.93148934 -0.12304783 389.69247341 C-0.12420167 389.02272359 -0.12535552 388.35297376 -0.12654433 387.66292849 C-0.12921748 385.39061282 -0.12468314 383.11836624 -0.12025452 380.84605408 C-0.12069008 379.21176991 -0.1215647 377.57748581 -0.12284368 375.94320208 C-0.12509164 371.43042937 -0.12106327 366.91768016 -0.11606562 362.40491045 C-0.1117656 357.54666859 -0.11320722 352.68842816 -0.1139679 347.83018494 C-0.11449342 339.40568157 -0.11134369 330.98118592 -0.10573006 322.55668449 C-0.09761885 310.37612046 -0.09500023 298.19556018 -0.09374207 286.01499373 C-0.09155095 266.25502951 -0.08488924 246.49506941 -0.07543945 226.73510742 C-0.06626688 207.53491232 -0.05918529 188.33471833 -0.05493164 169.13452148 C-0.05466892 167.95193396 -0.05440619 166.76934643 -0.05413551 165.55092292 C-0.05283051 159.61850135 -0.0515668 153.68607976 -0.05032361 147.75365818 C-0.03994913 98.50243594 -0.02232919 49.25121817 0 0 Z " fill="#FEFDFE" transform="translate(333,313)"/>
<path d="M0 0 C0.33 0.66 0.66 1.32 1 2 C-1.297221 3.74271938 -3.59866729 5.39911152 -6 7 C-7.32 6.67 -8.64 6.34 -10 6 C-6.7 4.02 -3.4 2.04 0 0 Z " fill="#ED1B44" transform="translate(243,185)"/>
</svg>
